<svg width="24" height="24" viewBox="0 0 24 24" fill="none" xmlns="http://www.w3.org/2000/svg">
    <path fill-rule="evenodd" clip-rule="evenodd" d="M10.9772 19.0638C15.2756 19.0638 18.7601 15.5793 18.7601 11.2809C18.7601 6.98255 15.2756 3.49805 10.9772 3.49805C6.67884 3.49805 3.19434 6.98255 3.19434 11.2809C3.19434 15.5793 6.67884 19.0638 10.9772 19.0638ZM18.4384 17.4136C19.8109 15.7457 20.6351 13.6096 20.6351 11.2809C20.6351 5.94702 16.3111 1.62305 10.9772 1.62305C5.64331 1.62305 1.31934 5.94702 1.31934 11.2809C1.31934 16.6148 5.64331 20.9388 10.9772 20.9388C13.3072 20.9388 15.4445 20.1137 17.1128 18.7397L21.5313 23.1582C21.8974 23.5243 22.491 23.5243 22.8572 23.1582C23.2233 22.7921 23.2233 22.1985 22.8572 21.8324L18.4384 17.4136Z" fill="black"/>
</svg>
