<svg width="24" height="24" viewBox="0 0 24 24" fill="none" xmlns="http://www.w3.org/2000/svg">
    <path fill-rule="evenodd" clip-rule="evenodd" d="M7.03062 5.96944C6.73773 5.67654 6.26286 5.67653 5.96996 5.96941C5.67705 6.2623 5.67704 6.73717 5.96993 7.03007L10.939 11.9994L5.96917 16.9695C5.67628 17.2624 5.67629 17.7373 5.9692 18.0302C6.2621 18.323 6.73697 18.323 7.02986 18.0301L11.9996 13.0601L16.9694 18.0301C17.2623 18.323 17.7372 18.323 18.0301 18.0302C18.323 17.7373 18.323 17.2624 18.0301 16.9695L13.0603 11.9994L18.0293 7.03007C18.3222 6.73717 18.3222 6.2623 18.0293 5.96941C17.7364 5.67653 17.2615 5.67654 16.9687 5.96944L11.9996 10.9387L7.03062 5.96944Z" fill="#969696"/>
</svg>
